# This file uses centimeters as units for non-parametric coordinates.

mtllib SofaL.mtl
g default
v 97.378281 0.037865 -22.152651
v 100.139717 0.037865 -22.152651
v 94.628998 6.294027 -19.737148
v 102.871552 6.294027 -19.737148
v 94.628998 6.294027 -27.788811
v 102.871552 6.294027 -27.788811
v 97.378281 0.037865 -25.373310
v 100.139717 0.037865 -25.373310
v -40.352425 41.209377 -68.546082
v -40.352425 85.663589 -68.546082
v -40.352425 41.209377 -59.340744
v -86.516052 41.209377 -59.340744
v -86.516052 41.209377 -68.546082
v -86.516052 85.663589 -68.546082
v -40.352425 84.585228 -60.419113
v -40.352425 81.981834 -59.340744
v -40.352425 85.663589 -63.022499
v -86.516052 85.663589 -63.022499
v -86.516052 81.981834 -59.340744
v -86.516052 84.585228 -60.419113
v -86.131767 63.661697 -30.488539
v -86.131767 63.661697 -32.940987
v -86.131767 66.114143 -30.488539
v -86.131767 66.114143 -32.940987
v -86.072296 64.887909 -30.059349
v -86.682220 66.543304 -33.370174
v -86.682220 66.543304 -30.059349
v -86.682220 63.232517 -33.370174
v -86.072296 63.232517 -31.714762
v -86.682220 63.232517 -30.059349
v -86.072296 64.887909 -33.370174
v -86.072296 66.543304 -31.714762
v -86.682220 62.680721 -31.714762
v -85.995926 64.887909 -31.714762
v -86.682220 67.095116 -31.714762
v -86.682220 64.887909 -33.921978
v -86.682220 64.887909 -29.507545
v -100.983360 0.037865 68.550171
v -98.221924 0.037865 68.550171
v -103.732727 6.294027 70.965675
v -95.490082 6.294027 70.965675
v -103.732727 6.294027 62.914009
v -95.490082 6.294027 62.914009
v -100.983360 0.037865 65.329514
v -98.221924 0.037865 65.329514
v -39.644981 31.781347 -12.831594
v 94.573685 31.781347 -12.831594
v -39.644981 40.827389 -68.442894
v 94.573685 40.827389 -68.442894
v -39.644981 31.781347 -68.442894
v 94.573685 31.781347 -68.442894
v -39.644981 40.827389 -17.354164
v -39.644981 36.304825 -12.831594
v -39.644981 39.502762 -14.156223
v 94.573685 40.827389 -17.354164
v 94.573685 39.502762 -14.156223
v 94.573685 36.304825 -12.831594
v -10.056886 63.058159 -58.902859
v -7.604438 63.058159 -58.902859
v -10.056886 65.510597 -58.902859
v -7.604438 65.510597 -58.902859
v -10.486074 64.284370 -58.843399
v -7.175249 65.939766 -59.453259
v -10.486074 65.939766 -59.453259
v -7.175249 62.628975 -59.453259
v -8.830662 62.628975 -58.843399
v -10.486074 62.628975 -59.453259
v -7.175249 64.284370 -58.843399
v -8.830662 65.939766 -58.843399
v -8.830662 62.077183 -59.453259
v -8.830662 64.284370 -58.766956
v -8.830662 66.491577 -59.453259
v -6.623445 64.284370 -59.453259
v -11.037878 64.284370 -59.453259
v -52.678555 0.037865 -22.152651
v -49.917118 0.037865 -22.152651
v -55.427841 6.294027 -19.737148
v -47.185280 6.294027 -19.737148
v -55.427841 6.294027 -27.788811
v -47.185280 6.294027 -27.788811
v -52.678555 0.037865 -25.373310
v -49.917118 0.037865 -25.373310
v -109.686531 5.236598 82.607689
v -109.686531 59.857918 -82.607689
v -109.686531 5.236598 -82.607689
v 109.686531 5.236598 -82.607689
v -96.113701 5.236598 82.607689
v 95.159920 59.857918 -82.607689
v 95.159920 5.236598 -82.607689
v -109.686531 59.857918 66.667213
v -109.686531 5.236598 66.667213
v -96.113701 59.857918 66.667213
v -96.113701 59.857918 -68.712585
v 95.159920 59.857918 -68.712585
v 95.159920 5.236598 -12.434704
v 109.686531 5.236598 -12.434704
v -40.075516 5.236598 82.607689
v -40.075516 5.236598 -12.434687
v -40.075516 5.236598 66.667213
v -109.686531 54.533672 -82.607689
v -109.686531 54.533672 66.667213
v -109.686531 54.533672 82.607689
v -96.113701 54.533672 82.607689
v 109.686531 54.533672 -82.603096
v 95.159920 54.533672 -82.607689
v 95.159920 30.803194 -12.434669
v -40.075516 30.803205 -12.434669
v -40.075516 30.803198 66.667213
v -96.109406 54.533672 66.667213
v -96.541283 31.574135 66.667213
v 95.159920 54.520069 -68.708824
v 95.159920 30.943979 -68.705032
v -96.131287 31.705811 -68.578392
v 109.686531 54.533672 -68.708824
v 109.686531 5.236598 -68.708794
v -40.075516 5.236598 63.919533
v -109.686531 5.236598 63.919518
v -96.113701 5.236598 63.919518
v -96.113632 5.236598 -68.925232
v 95.159920 5.236598 -68.925232
v 109.686531 5.236598 -68.925232
v -41.510662 52.858212 82.607689
v -45.283024 54.533669 82.607689
v -40.075516 48.339684 82.607689
v -45.283024 54.533669 66.667213
v -41.510662 52.858212 66.667213
v -40.075516 48.339684 66.667213
v 109.686531 52.930378 -14.319576
v 109.686531 47.312702 -12.434669
v 109.686531 54.533672 -19.068569
v 95.159920 54.530804 -19.070011
v 95.159920 47.311272 -12.434669
v 95.159920 52.928940 -14.320147
v 94.664429 41.209377 -68.546082
v 94.664391 85.663589 -68.546082
v 94.664391 41.209377 -59.340744
v -39.529884 41.209377 -59.340744
v -39.529884 41.209377 -68.546082
v -39.529884 85.663589 -68.546082
v 94.664391 84.585228 -60.419113
v 94.664391 81.981834 -59.340744
v 94.664391 85.663589 -63.022499
v -39.529884 85.663589 -63.022499
v -39.529884 81.981834 -59.340744
v -39.529884 84.585228 -60.419113
v -86.662224 41.209377 66.147690
v -95.867599 41.209377 66.147690
v -95.867599 85.663589 66.147690
v -95.867599 41.209377 -68.494568
v -95.867599 85.663589 -68.494568
v -86.662224 41.209377 -68.494568
v -87.740601 84.585228 66.147690
v -90.344055 85.663589 66.147690
v -86.662224 81.981834 66.147690
v -87.740601 84.585228 -68.494568
v -86.662224 81.981834 -68.494568
v -90.344055 85.663589 -68.494568
v 56.905037 63.661697 -58.902859
v 59.357483 63.661697 -58.902859
v 56.905037 66.114143 -58.902859
v 59.357483 66.114143 -58.902859
v 56.475845 64.887909 -58.843399
v 59.786674 66.543304 -59.453259
v 56.475845 66.543304 -59.453259
v 59.786674 63.232517 -59.453259
v 58.131260 63.232517 -58.843399
v 56.475845 63.232517 -59.453259
v 59.786674 64.887909 -58.843399
v 58.131260 66.543304 -58.843399
v 58.131260 62.680721 -59.453259
v 58.131260 64.887909 -58.766956
v 58.131260 67.095116 -59.453259
v 60.338474 64.887909 -59.453259
v 55.924046 64.887909 -59.453259
v -64.528992 63.058159 -58.902859
v -62.076542 63.058159 -58.902859
v -64.528992 65.510597 -58.902859
v -62.076542 65.510597 -58.902859
v -64.958176 64.284370 -58.843399
v -61.647354 65.939766 -59.453259
v -64.958176 65.939766 -59.453259
v -61.647354 62.628975 -59.453259
v -63.302765 62.628975 -58.843399
v -64.958176 62.628975 -59.453259
v -61.647354 64.284370 -58.843399
v -63.302765 65.939766 -58.843399
v -63.302765 62.077183 -59.453259
v -63.302765 64.284370 -58.766956
v -63.302765 66.491577 -59.453259
v -61.095551 64.284370 -59.453259
v -65.509979 64.284370 -59.453259
v -39.853775 31.781347 66.196785
v -39.853775 31.781347 -68.549065
v -95.465050 40.827389 66.196785
v -95.465050 40.827389 -68.549065
v -95.465050 31.781347 66.196785
v -95.465050 31.781347 -68.549065
v -44.376328 40.827389 66.196785
v -39.853775 36.304825 66.196785
v -41.178383 39.502762 66.196785
v -44.376328 40.827389 -68.549065
v -41.178383 39.502762 -68.549065
v -39.853775 36.304825 -68.549065
v -52.678555 0.037865 68.269875
v -49.917118 0.037865 68.269875
v -55.427841 6.294027 70.685379
v -47.185280 6.294027 70.685379
v -55.427841 6.294027 62.633698
v -47.185280 6.294027 62.633698
v -52.678555 0.037865 65.049217
v -49.917118 0.037865 65.049217
v -86.131767 63.058159 36.473385
v -86.131767 63.058159 34.020935
v -86.131767 65.510597 36.473385
v -86.131767 65.510597 34.020935
v -86.072296 64.284370 36.902573
v -86.682220 65.939766 33.591751
v -86.682220 65.939766 36.902573
v -86.682220 62.628975 33.591751
v -86.072296 62.628975 35.247162
v -86.682220 62.628975 36.902573
v -86.072296 64.284370 33.591751
v -86.072296 65.939766 35.247162
v -86.682220 62.077183 35.247162
v -85.995926 64.284370 35.247162
v -86.682220 66.491577 35.247162
v -86.682220 64.284370 33.039948
v -86.682220 64.284370 37.454376
v 96.925438 0.037865 -70.366592
v 99.686905 0.037865 -70.366592
v 94.176117 6.294027 -67.951088
v 102.418716 6.294027 -67.951088
v 94.176117 6.294027 -76.002785
v 102.418716 6.294027 -76.002785
v 96.925438 0.037865 -73.587242
v 99.686905 0.037865 -73.587242
v -100.983360 0.037865 -70.366592
v -98.221924 0.037865 -70.366592
v -103.732727 6.294027 -67.951088
v -95.490082 6.294027 -67.951088
v -103.732727 6.294027 -76.002785
v -95.490082 6.294027 -76.002785
v -100.983360 0.037865 -73.587242
v -98.221924 0.037865 -73.587242
vt 0.925581 0.207507
vt 0.930630 0.207507
vt 0.934417 0.217316
vt 0.921794 0.217316
vt 0.930630 0.240047
vt 0.925581 0.240047
vt 0.921794 0.230238
vt 0.934417 0.230238
vt 0.944226 0.225928
vt 0.944226 0.221599
vt 0.949275 0.221599
vt 0.949275 0.225928
vt 0.911986 0.225928
vt 0.911986 0.221599
vt 0.181945 0.161775
vt 0.244385 0.161775
vt 0.244385 0.232472
vt 0.181945 0.232472
vt 0.178633 0.232297
vt 0.110722 0.232297
vt 0.110722 0.161775
vt 0.178633 0.161775
vt 0.728699 0.228968
vt 0.728699 0.300415
vt 0.720150 0.300415
vt 0.720150 0.228968
vt 0.400067 0.276453
vt 0.400067 0.205931
vt 0.414130 0.205931
vt 0.414130 0.276453
vt 0.248372 0.161775
vt 0.248372 0.232472
vt 0.716121 0.228968
vt 0.716121 0.300415
vt 0.285976 0.291576
vt 0.284329 0.287599
vt 0.284329 0.225313
vt 0.298392 0.225313
vt 0.737914 0.292208
vt 0.729476 0.292208
vt 0.729476 0.224297
vt 0.741891 0.290560
vt 0.298392 0.293224
vt 0.289953 0.293224
vt 0.743538 0.224297
vt 0.743538 0.286583
vt 0.248717 0.165488
vt 0.249646 0.162702
vt 0.250368 0.163424
vt 0.249646 0.165488
vt 0.249646 0.168275
vt 0.250368 0.167552
vt 0.252432 0.165488
vt 0.252432 0.168275
vt 0.252432 0.162702
vt 0.254496 0.163424
vt 0.255219 0.165488
vt 0.254496 0.167552
vt 0.256148 0.165488
vt 0.255219 0.168275
vt 0.255219 0.162702
vt 0.252432 0.161773
vt 0.252432 0.169204
vt 0.938694 0.243815
vt 0.938694 0.239485
vt 0.948503 0.235202
vt 0.948503 0.248125
vt 0.961126 0.235202
vt 0.961126 0.248125
vt 0.970935 0.239485
vt 0.970935 0.243815
vt 0.957339 0.221065
vt 0.957339 0.225394
vt 0.952290 0.225394
vt 0.952290 0.221065
vt 0.957339 0.257933
vt 0.952290 0.257933
vt 0.730429 0.830784
vt 0.730348 0.625744
vt 0.737259 0.625741
vt 0.737339 0.830782
vt 0.747915 0.830778
vt 0.747835 0.625737
vt 0.825881 0.625706
vt 0.825961 0.830747
vt 0.631654 0.830823
vt 0.631574 0.625783
vt 0.645393 0.625777
vt 0.645474 0.830818
vt 0.742627 0.830780
vt 0.742547 0.625739
vt 0.631685 0.908869
vt 0.645507 0.915773
vt 0.638597 0.915776
vt 0.633711 0.913754
vt 0.645360 0.540822
vt 0.631543 0.547736
vt 0.633565 0.542850
vt 0.638449 0.540825
vt 0.297683 0.165488
vt 0.298612 0.162702
vt 0.299334 0.163424
vt 0.298612 0.165488
vt 0.298612 0.168275
vt 0.299334 0.167552
vt 0.301398 0.165488
vt 0.301398 0.168275
vt 0.301398 0.162702
vt 0.303463 0.163424
vt 0.304185 0.165488
vt 0.303463 0.167552
vt 0.305114 0.165488
vt 0.304185 0.168275
vt 0.304185 0.162702
vt 0.301398 0.161773
vt 0.301398 0.169204
vt 0.248717 0.225313
vt 0.248717 0.220983
vt 0.258525 0.216700
vt 0.258525 0.229623
vt 0.271149 0.216700
vt 0.271149 0.229623
vt 0.280957 0.220983
vt 0.280957 0.225313
vt 0.286006 0.220983
vt 0.286006 0.225313
vt 0.262312 0.206892
vt 0.267362 0.206892
vt 0.267362 0.239431
vt 0.262312 0.239431
vt 0.033992 0.275972
vt 0.032274 0.254469
vt 0.109302 0.247283
vt 0.111384 0.267869
vt 0.265095 0.786543
vt 0.075229 0.533392
vt 0.142586 0.500739
vt 0.325390 0.739338
vt 0.806421 0.434480
vt 0.806421 0.520087
vt 0.603479 0.520087
vt 0.689778 0.434480
vt 0.035981 0.301276
vt 0.114540 0.291929
vt 0.279640 0.804554
vt 0.339200 0.756566
vt 0.149835 0.497282
vt 0.331923 0.733954
vt 0.123148 0.291247
vt 0.036232 0.305688
vt 0.352854 0.772758
vt 0.293586 0.821683
vt 0.293369 0.821417
vt 0.145135 0.290258
vt 0.171260 0.489428
vt 0.348968 0.720641
vt 0.689778 0.227886
vt 0.603479 0.227886
vt 0.603479 0.205694
vt 0.603810 0.205694
vt 0.689778 0.205694
vt 0.937734 0.462716
vt 0.898677 0.462797
vt 0.898631 0.440606
vt 0.962909 0.440472
vt 0.962953 0.462664
vt 0.938163 0.669310
vt 0.899106 0.669391
vt 0.938414 0.790150
vt 0.899357 0.790231
vt 0.899348 0.786034
vt 0.965203 0.790095
vt 0.965254 0.814446
vt 0.899407 0.814583
vt 0.123269 0.282725
vt 0.123115 0.257744
vt 0.144537 0.282216
vt 0.354014 0.726815
vt 0.369232 0.743470
vt 0.352713 0.757689
vt 0.337380 0.740631
vt 0.681116 0.162559
vt 0.887924 0.164172
vt 0.887861 0.172305
vt 0.887588 0.207385
vt 0.680986 0.205566
vt 0.388852 0.169929
vt 0.388874 0.161775
vt 0.681074 0.162559
vt 0.388755 0.205946
vt 0.302786 0.412537
vt 0.388560 0.498176
vt 0.181950 0.498812
vt 0.181945 0.412544
vt 0.302793 0.205943
vt 0.410379 0.674177
vt 0.425852 0.690645
vt 0.834970 0.520087
vt 0.810619 0.434480
vt 0.834970 0.434480
vt 0.834970 0.540822
vt 0.810619 0.540822
vt 0.806421 0.540822
vt 0.582577 0.540822
vt 0.582577 0.227886
vt 0.582577 0.205694
vt 0.223550 0.257152
vt 0.223616 0.281962
vt 0.144369 0.257428
vt 0.229977 0.257139
vt 0.230041 0.281950
vt 0.972497 0.814431
vt 0.972446 0.790080
vt 0.100080 0.163445
vt 0.026144 0.166694
vt 0.092923 0.161772
vt 0.971292 0.173945
vt 0.965502 0.171449
vt 0.971961 0.440454
vt 0.972005 0.462645
vt 0.431528 0.685279
vt 0.416043 0.668819
vt 0.405419 0.838466
vt 0.402508 0.831235
vt 0.305759 0.172150
vt 0.302857 0.180724
vt 0.400665 0.846323
vt 0.350926 0.888709
vt 0.313021 0.169721
vt 0.973856 0.207611
vt 0.973561 0.180823
vt 0.103089 0.169106
vt 0.761344 0.221536
vt 0.823631 0.221525
vt 0.823664 0.426529
vt 0.761377 0.426539
vt 0.908622 0.426515
vt 0.840711 0.426526
vt 0.840678 0.221523
vt 0.908589 0.221512
vt 0.832273 0.426527
vt 0.832240 0.221524
vt 0.747315 0.426541
vt 0.747281 0.221538
vt 0.827935 0.221525
vt 0.827968 0.426528
vt 0.842324 0.209107
vt 0.846300 0.207459
vt 0.908587 0.207449
vt 0.840713 0.434964
vt 0.842361 0.438941
vt 0.840677 0.213084
vt 0.908625 0.440578
vt 0.846338 0.440588
vt 0.431936 0.219861
vt 0.499847 0.219856
vt 0.499863 0.425544
vt 0.431952 0.425549
vt 0.579197 0.425537
vt 0.516911 0.425542
vt 0.516894 0.219855
vt 0.579181 0.219850
vt 0.508285 0.219855
vt 0.508301 0.425543
vt 0.417889 0.425550
vt 0.417873 0.219862
vt 0.512590 0.219855
vt 0.512606 0.425543
vt 0.512917 0.218207
vt 0.511269 0.214230
vt 0.511269 0.205792
vt 0.579180 0.205787
vt 0.512934 0.427190
vt 0.579198 0.439600
vt 0.511287 0.439605
vt 0.511287 0.431167
vt 0.288780 0.165488
vt 0.289709 0.162702
vt 0.290432 0.163424
vt 0.289709 0.165488
vt 0.289709 0.168275
vt 0.290432 0.167552
vt 0.292496 0.165488
vt 0.292496 0.168275
vt 0.292496 0.162702
vt 0.294560 0.163424
vt 0.295282 0.165488
vt 0.294560 0.167552
vt 0.296211 0.165488
vt 0.295282 0.168275
vt 0.295282 0.162702
vt 0.292496 0.161773
vt 0.292496 0.169204
vt 0.279877 0.165488
vt 0.280806 0.162702
vt 0.281529 0.163424
vt 0.280806 0.165488
vt 0.280806 0.168275
vt 0.281529 0.167552
vt 0.283593 0.165488
vt 0.283593 0.168275
vt 0.283593 0.162702
vt 0.285657 0.163424
vt 0.286379 0.165488
vt 0.285657 0.167552
vt 0.287308 0.165488
vt 0.286379 0.168275
vt 0.286379 0.162702
vt 0.283593 0.161773
vt 0.283593 0.169204
vt 0.544970 0.540822
vt 0.544970 0.746773
vt 0.538056 0.746773
vt 0.538056 0.540822
vt 0.527478 0.540830
vt 0.527478 0.746765
vt 0.449489 0.746649
vt 0.449489 0.540945
vt 0.435679 0.746649
vt 0.435679 0.540945
vt 0.629969 0.540822
vt 0.629968 0.746773
vt 0.532766 0.540822
vt 0.532765 0.746773
vt 0.449489 0.462953
vt 0.435680 0.456049
vt 0.442585 0.456049
vt 0.447467 0.458071
vt 0.435679 0.831546
vt 0.449489 0.824642
vt 0.447466 0.829524
vt 0.442584 0.831546
vt 0.693864 0.224297
vt 0.693864 0.219967
vt 0.703672 0.215684
vt 0.703672 0.228607
vt 0.716295 0.215684
vt 0.716295 0.228607
vt 0.726104 0.219967
vt 0.726104 0.224297
vt 0.731153 0.219967
vt 0.731153 0.224297
vt 0.707459 0.205876
vt 0.712508 0.205876
vt 0.712508 0.238415
vt 0.707459 0.238415
vt 0.270974 0.165488
vt 0.271903 0.162702
vt 0.272626 0.163424
vt 0.271903 0.165488
vt 0.271903 0.168275
vt 0.272626 0.167552
vt 0.274690 0.165488
vt 0.274690 0.168275
vt 0.274690 0.162702
vt 0.276754 0.163424
vt 0.277476 0.165488
vt 0.276754 0.167552
vt 0.278405 0.165488
vt 0.277476 0.168275
vt 0.277476 0.162702
vt 0.274690 0.161773
vt 0.274690 0.169204
vt 0.262072 0.202754
vt 0.262072 0.198425
vt 0.271880 0.194142
vt 0.271880 0.207065
vt 0.284503 0.194142
vt 0.284503 0.207065
vt 0.294312 0.198425
vt 0.294312 0.202754
vt 0.299361 0.198425
vt 0.299361 0.202754
vt 0.275667 0.184334
vt 0.280716 0.184334
vt 0.280716 0.216873
vt 0.275667 0.216873
vt 0.248717 0.180196
vt 0.248717 0.175866
vt 0.258525 0.171583
vt 0.258525 0.184506
vt 0.271149 0.171583
vt 0.271149 0.184506
vt 0.280957 0.175866
vt 0.280957 0.180196
vt 0.286006 0.175866
vt 0.286006 0.180196
vt 0.262312 0.161775
vt 0.267362 0.161775
vt 0.267362 0.194314
vt 0.262312 0.194314
vn 0.000000 -0.360185 0.932881
vn 0.000000 -0.360185 0.932881
vn 0.000000 -0.360185 0.932881
vn 0.000000 -0.360185 0.932881
vn 0.000000 1.000000 0.000000
vn 0.000000 1.000000 0.000000
vn 0.000000 1.000000 0.000000
vn 0.000000 1.000000 0.000000
vn 0.000000 -0.360185 -0.932881
vn 0.000000 -0.360185 -0.932881
vn 0.000000 -0.360185 -0.932881
vn 0.000000 -0.360185 -0.932881
vn 0.000000 -1.000000 0.000000
vn 0.000000 -1.000000 0.000000
vn 0.000000 -1.000000 0.000000
vn 0.000000 -1.000000 0.000000
vn 0.916439 -0.400175 0.000000
vn 0.916439 -0.400175 0.000000
vn 0.916439 -0.400175 0.000000
vn 0.916439 -0.400175 0.000000
vn -0.915500 -0.402317 0.000000
vn -0.915500 -0.402317 0.000000
vn -0.915500 -0.402317 0.000000
vn -0.915500 -0.402317 0.000000
vn 0.000000 0.000000 1.000000
vn 0.000000 0.024853 0.999691
vn 0.000000 0.024853 0.999691
vn 0.000000 0.000000 1.000000
vn 0.000000 0.000000 -1.000000
vn 0.000000 0.000000 -1.000000
vn 0.000000 0.000000 -1.000000
vn 0.000000 0.000000 -1.000000
vn 0.000000 1.000000 0.000000
vn 0.000000 1.000000 0.000000
vn 0.000000 0.991311 0.131536
vn 0.000000 0.991311 0.131536
vn 0.000000 -1.000000 0.000000
vn 0.000000 -1.000000 0.000000
vn 0.000000 -1.000000 0.000000
vn 0.000000 -1.000000 0.000000
vn 0.000000 0.024853 0.999691
vn 0.000000 0.382686 0.923879
vn 0.000000 0.382686 0.923879
vn 0.000000 0.024853 0.999691
vn 0.000000 0.923879 0.382684
vn 0.000000 0.991311 0.131536
vn 0.000000 0.991311 0.131536
vn 0.000000 0.923879 0.382684
vn 1.000000 -0.000000 0.000000
vn 1.000000 -0.000000 0.000000
vn 1.000000 -0.000000 0.000000
vn 1.000000 -0.000000 0.000000
vn -1.000000 0.000000 0.000000
vn -1.000000 0.000000 0.000000
vn -1.000000 0.000000 0.000000
vn -1.000000 0.000000 0.000000
vn 1.000000 -0.000000 0.000000
vn 1.000000 -0.000000 0.000000
vn 1.000000 0.000000 0.000000
vn 1.000000 0.000000 0.000000
vn -1.000000 0.000000 0.000000
vn -1.000000 0.000000 0.000000
vn -1.000000 0.000000 0.000000
vn -1.000000 0.000000 0.000000
vn 0.699487 -0.714645 0.000000
vn 0.713157 -0.495686 -0.495684
vn 0.912774 -0.288830 -0.288825
vn 0.926621 -0.375998 0.000000
vn 0.713159 -0.495682 0.495686
vn 0.699487 -0.714645 0.000000
vn 0.926621 -0.375998 0.000000
vn 0.912775 -0.288831 0.288824
vn 0.912775 -0.288831 0.288824
vn 0.926621 -0.375998 0.000000
vn 1.000000 0.000001 -0.000000
vn 0.926621 0.000001 0.375996
vn 0.926621 -0.375998 0.000000
vn 0.912774 -0.288830 -0.288825
vn 0.926621 0.000001 -0.375996
vn 1.000000 0.000001 -0.000000
vn 1.000000 0.000001 -0.000000
vn 0.926621 0.000001 -0.375996
vn 0.912774 0.288833 -0.288825
vn 0.926622 0.375995 0.000000
vn 0.926621 0.000001 0.375996
vn 1.000000 0.000001 -0.000000
vn 0.926622 0.375995 0.000000
vn 0.912774 0.288833 0.288825
vn 0.912774 0.288833 0.288825
vn 0.926622 0.375995 0.000000
vn 0.699486 0.714646 0.000001
vn 0.713157 0.495681 0.495690
vn 0.926622 0.375995 0.000000
vn 0.912774 0.288833 -0.288825
vn 0.713156 0.495683 -0.495689
vn 0.699486 0.714646 0.000001
vn 0.699487 0.000000 -0.714646
vn 0.713156 0.495683 -0.495689
vn 0.912774 0.288833 -0.288825
vn 0.926621 0.000001 -0.375996
vn 0.713157 -0.495686 -0.495684
vn 0.699487 0.000000 -0.714646
vn 0.926621 0.000001 -0.375996
vn 0.912774 -0.288830 -0.288825
vn 0.699487 0.000001 0.714645
vn 0.713159 -0.495682 0.495686
vn 0.912775 -0.288831 0.288824
vn 0.926621 0.000001 0.375996
vn 0.713157 0.495681 0.495690
vn 0.699487 0.000001 0.714645
vn 0.926621 0.000001 0.375996
vn 0.912774 0.288833 0.288825
vn 0.000000 -0.360186 0.932881
vn 0.000000 -0.360186 0.932881
vn 0.000000 -0.360186 0.932881
vn 0.000000 -0.360186 0.932881
vn 0.000000 1.000000 0.000000
vn 0.000000 1.000000 0.000000
vn 0.000000 1.000000 0.000000
vn 0.000000 1.000000 0.000000
vn 0.000000 -0.360186 -0.932881
vn 0.000000 -0.360186 -0.932881
vn 0.000000 -0.360186 -0.932881
vn 0.000000 -0.360186 -0.932881
vn 0.000000 -1.000000 0.000000
vn 0.000000 -1.000000 0.000000
vn 0.000000 -1.000000 0.000000
vn 0.000000 -1.000000 0.000000
vn 0.916438 -0.400177 0.000000
vn 0.916438 -0.400177 0.000000
vn 0.916438 -0.400177 0.000000
vn 0.916438 -0.400177 0.000000
vn -0.915495 -0.402329 0.000000
vn -0.915495 -0.402329 0.000000
vn -0.915495 -0.402329 0.000000
vn -0.915495 -0.402329 0.000000
vn 0.000000 0.000000 1.000000
vn 0.000000 0.000000 1.000000
vn 0.000000 0.169083 0.985602
vn 0.000000 0.169083 0.985602
vn 0.000000 0.999702 0.024393
vn 0.000000 0.999702 0.024393
vn 0.000000 1.000000 0.000000
vn 0.000000 1.000000 0.000000
vn 0.000000 0.000000 -1.000000
vn 0.000000 0.000000 -1.000000
vn 0.000000 0.000000 -1.000000
vn 0.000000 0.000000 -1.000000
vn 0.000000 -1.000000 0.000000
vn 0.000000 -1.000000 0.000000
vn 0.000000 -1.000000 0.000000
vn 0.000000 -1.000000 0.000000
vn 0.000000 0.999702 0.024393
vn 0.000000 0.923880 0.382682
vn 0.000000 0.923880 0.382682
vn 0.000000 0.999702 0.024393
vn 0.000000 0.382683 0.923880
vn 0.000000 0.169083 0.985602
vn 0.000000 0.169083 0.985602
vn 0.000000 0.382683 0.923880
vn -1.000000 -0.000000 0.000000
vn -1.000000 -0.000000 0.000000
vn -1.000000 -0.000000 0.000000
vn -1.000000 -0.000000 0.000000
vn -1.000000 -0.000000 0.000000
vn -1.000000 -0.000000 0.000000
vn 1.000000 -0.000001 0.000000
vn 1.000000 -0.000001 0.000000
vn 1.000000 -0.000001 0.000000
vn 1.000000 -0.000001 0.000000
vn 1.000000 -0.000001 0.000000
vn 1.000000 -0.000001 0.000000
vn 0.000000 -0.714614 0.699519
vn 0.495657 -0.495661 0.713193
vn 0.288814 -0.288819 0.912781
vn 0.000000 -0.375983 0.926626
vn -0.495659 -0.495662 0.713191
vn 0.000000 -0.714614 0.699519
vn 0.000000 -0.375983 0.926626
vn -0.288815 -0.288819 0.912781
vn -0.288815 -0.288819 0.912781
vn 0.000000 -0.375983 0.926626
vn -0.000000 0.000000 1.000000
vn -0.375981 -0.000000 0.926627
vn 0.000000 -0.375983 0.926626
vn 0.288814 -0.288819 0.912781
vn 0.375980 -0.000000 0.926628
vn -0.000000 0.000000 1.000000
vn -0.000000 0.000000 1.000000
vn 0.375980 -0.000000 0.926628
vn 0.288814 0.288819 0.912781
vn 0.000000 0.375980 0.926628
vn -0.375981 -0.000000 0.926627
vn -0.000000 0.000000 1.000000
vn 0.000000 0.375980 0.926628
vn -0.288814 0.288820 0.912781
vn -0.288814 0.288820 0.912781
vn 0.000000 0.375980 0.926628
vn 0.000000 0.714612 0.699521
vn -0.495659 0.495659 0.713193
vn 0.000000 0.375980 0.926628
vn 0.288814 0.288819 0.912781
vn 0.495660 0.495658 0.713193
vn 0.000000 0.714612 0.699521
vn 0.714608 -0.000000 0.699525
vn 0.495660 0.495658 0.713193
vn 0.288814 0.288819 0.912781
vn 0.375980 -0.000000 0.926628
vn 0.495657 -0.495661 0.713193
vn 0.714608 -0.000000 0.699525
vn 0.375980 -0.000000 0.926628
vn 0.288814 -0.288819 0.912781
vn -0.714609 -0.000000 0.699524
vn -0.495659 -0.495662 0.713191
vn -0.288815 -0.288819 0.912781
vn -0.375981 -0.000000 0.926627
vn -0.495659 0.495659 0.713193
vn -0.714609 -0.000000 0.699524
vn -0.375981 -0.000000 0.926627
vn -0.288814 0.288820 0.912781
vn 0.000000 -0.360185 0.932881
vn 0.000000 -0.360185 0.932881
vn 0.000000 -0.360185 0.932881
vn 0.000000 -0.360185 0.932881
vn 0.000000 1.000000 0.000000
vn 0.000000 1.000000 0.000000
vn 0.000000 1.000000 0.000000
vn 0.000000 1.000000 0.000000
vn 0.000000 -0.360185 -0.932881
vn 0.000000 -0.360185 -0.932881
vn 0.000000 -0.360185 -0.932881
vn 0.000000 -0.360185 -0.932881
vn 0.000000 -1.000000 0.000000
vn 0.000000 -1.000000 0.000000
vn 0.000000 -1.000000 0.000000
vn 0.000000 -1.000000 0.000000
vn 0.916439 -0.400175 0.000000
vn 0.916439 -0.400175 0.000000
vn 0.916439 -0.400175 0.000000
vn 0.916439 -0.400175 0.000000
vn -0.915500 -0.402318 0.000000
vn -0.915500 -0.402319 0.000000
vn -0.915500 -0.402319 0.000000
vn -0.915500 -0.402319 0.000000
vn 0.000000 0.000000 1.000000
vn -0.000000 0.000000 1.000000
vn 0.000000 0.000000 1.000000
vn 0.000000 0.000000 1.000000
vn 0.000010 0.000003 -1.000000
vn 0.000000 0.000000 -1.000000
vn 0.000000 0.000000 -1.000000
vn 0.000010 0.000003 -1.000000
vn 0.000000 -1.000000 -0.000000
vn 0.000000 -1.000000 -0.000000
vn 0.000000 -1.000000 0.000000
vn 0.000000 -1.000000 -0.000000
vn -1.000000 -0.000000 0.000000
vn -1.000000 0.000000 0.000000
vn -1.000000 0.000000 0.000000
vn -1.000000 -0.000000 0.000000
vn 0.000158 0.000047 -1.000000
vn 0.000010 0.000003 -1.000000
vn 0.000010 0.000003 -1.000000
vn 0.000158 0.000047 -1.000000
vn 0.000010 0.000003 -1.000000
vn 0.000000 0.000000 -1.000000
vn 0.000000 0.000000 -1.000000
vn 0.000000 0.000000 -1.000000
vn -1.000000 0.000000 0.000000
vn -1.000000 -0.000000 0.000000
vn -1.000000 -0.000000 0.000000
vn -1.000000 0.000000 0.000000
vn -1.000000 -0.000000 0.000000
vn -1.000000 -0.000000 0.000000
vn -1.000000 -0.000000 0.000000
vn -1.000000 -0.000000 0.000000
vn -1.000000 -0.000000 0.000000
vn 1.000000 0.000000 0.000000
vn 1.000000 0.000000 0.000000
vn 1.000000 0.000000 0.000000
vn 1.000000 0.000000 0.000000
vn 1.000000 0.000000 0.000000
vn 0.000000 1.000000 0.000000
vn 0.000000 1.000000 0.000000
vn 0.000000 1.000000 0.000000
vn 0.000000 1.000000 0.000000
vn 0.000000 1.000000 0.000000
vn 0.000000 1.000000 0.000000
vn 0.000000 -1.000000 -0.000000
vn 0.000000 -1.000000 0.000000
vn 0.000000 -1.000000 0.000000
vn 0.000000 -1.000000 0.000000
vn 0.000000 -1.000000 0.000000
vn 0.000000 -0.000001 1.000000
vn 0.000000 -0.000001 1.000000
vn 0.000000 -0.000001 1.000000
vn -0.000006 0.039500 0.999220
vn -0.000006 0.039492 0.999220
vn 0.000000 -0.000001 1.000000
vn 0.000000 -0.000001 1.000000
vn 0.504893 -0.000001 0.863182
vn 0.504892 -0.000001 0.863182
vn 0.504892 -0.000001 0.863182
vn 0.504893 -0.000001 0.863182
vn 1.000000 0.000000 0.000000
vn 1.000000 0.000000 0.000000
vn 1.000000 0.000000 0.000000
vn 1.000000 0.000000 0.000000
vn 0.999546 0.030123 0.000000
vn 0.999546 0.030123 0.000000
vn 1.000000 0.000000 0.000000
vn 1.000000 0.000000 0.000000
vn 0.000000 1.000000 0.000000
vn 0.000000 1.000000 0.000000
vn 0.000000 1.000000 0.000000
vn 0.000000 0.000000 1.000000
vn 0.000000 0.000000 1.000000
vn 0.000000 0.000000 1.000000
vn 0.000000 0.000000 1.000000
vn -0.000545 1.000000 0.000023
vn -0.000545 1.000000 0.000023
vn -0.000468 1.000000 0.000490
vn -0.000468 1.000000 0.000490
vn 1.000000 0.000000 0.000000
vn 1.000000 0.000000 0.000000
vn 1.000000 0.000000 0.000000
vn 1.000000 0.000000 0.000000
vn 0.999968 -0.007884 0.001209
vn 0.999968 -0.007884 0.001209
vn 0.999968 -0.007884 0.001209
vn 0.999968 -0.007884 0.001209
vn 0.999968 -0.007884 0.001209
vn 0.000264 0.002484 0.999997
vn 0.000264 0.002484 0.999997
vn 0.000264 0.002484 0.999997
vn 0.000264 0.002484 0.999997
vn 0.000264 0.002484 0.999997
vn 0.007184 0.999961 0.005150
vn 0.007185 0.999961 0.005149
vn 0.014551 0.999894 0.000642
vn 0.014551 0.999894 0.000642
vn 0.007184 0.999961 0.005150
vn 0.002336 0.999964 0.008116
vn 0.002336 0.999964 0.008116
vn 0.007185 0.999961 0.005149
vn -0.000545 1.000000 0.000023
vn -0.000532 0.999569 0.029352
vn -0.000532 0.999569 0.029356
vn -0.000545 1.000000 0.000023
vn 0.000000 -1.000000 0.000000
vn 0.000000 -1.000000 -0.000000
vn 0.000000 -1.000000 -0.000000
vn 0.000000 -1.000000 0.000000
vn 0.000000 -1.000000 0.000000
vn 0.000000 -1.000000 -0.000000
vn 0.000000 -1.000000 -0.000000
vn 0.000000 -1.000000 0.000000
vn 0.000000 -1.000000 0.000000
vn 0.000000 -1.000000 -0.000000
vn 0.000000 -1.000000 0.000000
vn 0.000000 -1.000000 0.000000
vn 0.000000 -1.000000 0.000000
vn 0.000000 -1.000000 0.000000
vn 0.000000 -1.000000 0.000000
vn 0.000000 -1.000000 -0.000000
vn 0.000000 -1.000000 0.000000
vn 0.000000 -1.000000 0.000000
vn 0.000000 -1.000000 0.000000
vn 0.000000 -1.000000 0.000000
vn 0.000000 -1.000000 0.000000
vn 0.000000 -1.000000 0.000000
vn 0.000000 -1.000000 0.000000
vn 0.000000 -1.000000 0.000000
vn 0.000000 -1.000000 0.000000
vn 0.000000 -1.000000 0.000000
vn 0.030672 0.999529 0.000000
vn 0.030672 0.999529 0.000000
vn 0.000000 1.000000 0.000000
vn 0.000000 0.000000 0.000000
vn 0.000000 1.000000 0.000000
vn 0.030672 0.999529 0.000000
vn 0.405906 0.913915 0.000000
vn 0.405906 0.913915 0.000000
vn 0.030672 0.999529 0.000000
vn 0.953082 0.302712 0.000000
vn 0.999546 0.030123 0.000000
vn 0.999546 0.030123 0.000000
vn 0.953082 0.302712 0.000000
vn -0.000000 0.000000 1.000000
vn -0.000000 0.000000 1.000000
vn -0.000000 0.000000 1.000000
vn -0.000000 0.000000 1.000000
vn -0.000000 0.000000 -1.000000
vn -0.000000 0.000000 -1.000000
vn -0.000000 0.000000 -1.000000
vn -0.000000 0.000000 -1.000000
vn -0.000006 0.039500 0.999220
vn -0.000050 0.318146 0.948042
vn -0.000050 0.318146 0.948042
vn -0.000006 0.039492 0.999220
vn -0.000163 0.947513 0.319716
vn -0.000532 0.999569 0.029356
vn -0.000532 0.999569 0.029352
vn -0.000163 0.947514 0.319716
vn 1.000000 0.000000 0.000000
vn 1.000000 0.000000 0.000000
vn 1.000000 0.000000 0.000000
vn 1.000000 0.000000 0.000000
vn -1.000000 0.000000 0.000000
vn -1.000000 -0.000000 0.000000
vn -1.000000 0.000001 0.000000
vn -1.000000 0.000001 0.000000
vn 1.000000 0.000000 0.000000
vn 1.000000 0.000000 0.000000
vn 1.000000 0.000000 0.000000
vn 1.000000 0.000000 0.000000
vn -1.000000 -0.000000 0.000000
vn -1.000000 -0.000000 0.000000
vn -1.000000 -0.000000 0.000000
vn -1.000000 0.000000 0.000000
vn 0.000000 0.000000 -1.000000
vn -0.000000 0.000000 -1.000000
vn -0.000000 0.000000 -1.000000
vn 0.000000 0.000000 -1.000000
vn -0.000000 0.000000 1.000000
vn 0.000000 0.000000 1.000000
vn 0.000000 0.000000 1.000000
vn -0.000000 0.000000 1.000000
vn 0.000000 0.000000 1.000000
vn 0.000000 0.024853 0.999691
vn 0.000000 0.024853 0.999691
vn 0.000000 0.000000 1.000000
vn 0.000000 0.000000 -1.000000
vn 0.000000 0.000000 -1.000000
vn 0.000000 0.000000 -1.000000
vn 0.000000 0.000000 -1.000000
vn 0.000000 1.000000 0.000000
vn 0.000000 1.000000 0.000000
vn 0.000000 0.991311 0.131536
vn 0.000000 0.991311 0.131536
vn 0.000000 -1.000000 0.000000
vn 0.000000 -1.000000 0.000000
vn 0.000000 -1.000000 0.000000
vn 0.000000 -1.000000 0.000000
vn 0.000000 0.024853 0.999691
vn 0.000000 0.382686 0.923878
vn 0.000000 0.382686 0.923878
vn 0.000000 0.024853 0.999691
vn 0.000000 0.923879 0.382685
vn 0.000000 0.991311 0.131536
vn 0.000000 0.991311 0.131536
vn 0.000000 0.923879 0.382685
vn 1.000000 0.000001 0.000001
vn 1.000000 0.000000 0.000004
vn 1.000000 0.000000 0.000004
vn 1.000000 0.000000 0.000003
vn -1.000000 0.000000 0.000000
vn -1.000000 0.000000 0.000000
vn -1.000000 0.000000 0.000000
vn -1.000000 0.000000 0.000000
vn 1.000000 0.000001 0.000001
vn 1.000000 0.000000 0.000003
vn 1.000000 0.000001 0.000000
vn 1.000000 0.000001 0.000000
vn -1.000000 0.000000 0.000000
vn -1.000000 0.000000 0.000000
vn -1.000000 0.000000 0.000000
vn -1.000000 0.000000 0.000000
vn -1.000000 0.000000 0.000000
vn -1.000000 0.000000 0.000000
vn -1.000000 0.000000 0.000000
vn -1.000000 0.000000 0.000000
vn 1.000000 0.000000 0.000000
vn 0.999691 0.024854 0.000000
vn 0.999691 0.024854 0.000000
vn 1.000000 0.000000 0.000000
vn 0.131536 0.991311 0.000000
vn 0.131536 0.991311 0.000000
vn 0.000000 1.000000 0.000000
vn 0.000000 1.000000 0.000000
vn 0.000000 -1.000000 0.000000
vn 0.000000 -1.000000 0.000000
vn 0.000000 -1.000000 0.000000
vn 0.000000 -1.000000 0.000000
vn 0.131536 0.991311 0.000000
vn 0.382676 0.923883 0.000000
vn 0.382676 0.923883 0.000000
vn 0.131536 0.991311 0.000000
vn 0.923877 0.382689 0.000000
vn 0.999691 0.024854 0.000000
vn 0.999691 0.024854 0.000000
vn 0.923877 0.382689 0.000000
vn 0.000000 0.000000 1.000000
vn 0.000000 0.000000 1.000000
vn 0.000000 0.000000 1.000000
vn 0.000000 0.000000 1.000000
vn -0.000000 0.000000 -1.000000
vn 0.000000 0.000000 -1.000000
vn 0.000000 0.000000 -1.000000
vn -0.000000 0.000000 -1.000000
vn 0.000000 0.000000 1.000000
vn 0.000000 0.000000 1.000000
vn 0.000000 0.000000 1.000000
vn 0.000000 0.000000 1.000000
vn -0.000000 0.000000 -1.000000
vn -0.000000 0.000000 -1.000000
vn -0.000000 0.000000 -1.000000
vn -0.000000 0.000000 -1.000000
vn -0.000001 -0.714615 0.699518
vn 0.495657 -0.495661 0.713193
vn 0.288815 -0.288819 0.912781
vn -0.000000 -0.375983 0.926626
vn -0.495657 -0.495663 0.713191
vn -0.000001 -0.714615 0.699518
vn -0.000000 -0.375983 0.926626
vn -0.288815 -0.288820 0.912781
vn -0.288815 -0.288820 0.912781
vn -0.000000 -0.375983 0.926626
vn 0.000000 0.000000 1.000000
vn -0.375981 0.000000 0.926627
vn -0.000000 -0.375983 0.926626
vn 0.288815 -0.288819 0.912781
vn 0.375981 0.000000 0.926627
vn 0.000000 0.000000 1.000000
vn 0.000000 0.000000 1.000000
vn 0.375981 0.000000 0.926627
vn 0.288813 0.288819 0.912782
vn 0.000000 0.375977 0.926629
vn -0.375981 0.000000 0.926627
vn 0.000000 0.000000 1.000000
vn 0.000000 0.375977 0.926629
vn -0.288812 0.288821 0.912781
vn -0.288812 0.288821 0.912781
vn 0.000000 0.375977 0.926629
vn 0.000000 0.714609 0.699524
vn -0.495659 0.495658 0.713194
vn 0.000000 0.375977 0.926629
vn 0.288813 0.288819 0.912782
vn 0.495660 0.495656 0.713195
vn 0.000000 0.714609 0.699524
vn 0.714609 0.000000 0.699524
vn 0.495660 0.495656 0.713195
vn 0.288813 0.288819 0.912782
vn 0.375981 0.000000 0.926627
vn 0.495657 -0.495661 0.713193
vn 0.714609 0.000000 0.699524
vn 0.375981 0.000000 0.926627
vn 0.288815 -0.288819 0.912781
vn -0.714609 0.000001 0.699525
vn -0.495657 -0.495663 0.713191
vn -0.288815 -0.288820 0.912781
vn -0.375981 0.000000 0.926627
vn -0.495659 0.495658 0.713194
vn -0.714609 0.000001 0.699525
vn -0.375981 0.000000 0.926627
vn -0.288812 0.288821 0.912781
vn 0.000000 -0.714618 0.699515
vn 0.495659 -0.495663 0.713191
vn 0.288815 -0.288819 0.912781
vn 0.000000 -0.375984 0.926626
vn -0.495659 -0.495665 0.713189
vn 0.000000 -0.714618 0.699515
vn 0.000000 -0.375984 0.926626
vn -0.288815 -0.288819 0.912781
vn -0.288815 -0.288819 0.912781
vn 0.000000 -0.375984 0.926626
vn -0.000000 -0.000000 1.000000
vn -0.375980 0.000000 0.926628
vn 0.000000 -0.375984 0.926626
vn 0.288815 -0.288819 0.912781
vn 0.375980 -0.000000 0.926628
vn -0.000000 -0.000000 1.000000
vn -0.000000 -0.000000 1.000000
vn 0.375980 -0.000000 0.926628
vn 0.288815 0.288819 0.912781
vn 0.000000 0.375980 0.926628
vn -0.375980 0.000000 0.926628
vn -0.000000 -0.000000 1.000000
vn 0.000000 0.375980 0.926628
vn -0.288815 0.288820 0.912781
vn -0.288815 0.288820 0.912781
vn 0.000000 0.375980 0.926628
vn 0.000001 0.714615 0.699518
vn -0.495660 0.495662 0.713190
vn 0.000000 0.375980 0.926628
vn 0.288815 0.288819 0.912781
vn 0.495661 0.495659 0.713192
vn 0.000001 0.714615 0.699518
vn 0.714609 -0.000000 0.699525
vn 0.495661 0.495659 0.713192
vn 0.288815 0.288819 0.912781
vn 0.375980 -0.000000 0.926628
vn 0.495659 -0.495663 0.713191
vn 0.714609 -0.000000 0.699525
vn 0.375980 -0.000000 0.926628
vn 0.288815 -0.288819 0.912781
vn -0.714611 0.000000 0.699522
vn -0.495659 -0.495665 0.713189
vn -0.288815 -0.288819 0.912781
vn -0.375980 0.000000 0.926628
vn -0.495660 0.495662 0.713190
vn -0.714611 0.000000 0.699522
vn -0.375980 0.000000 0.926628
vn -0.288815 0.288820 0.912781
vn 1.000000 0.000000 0.000000
vn 1.000000 0.000000 0.000000
vn 0.985602 0.169080 0.000000
vn 0.985602 0.169080 0.000000
vn 0.024393 0.999702 0.000000
vn 0.024393 0.999702 0.000000
vn 0.000000 1.000000 0.000000
vn 0.000000 1.000000 0.000000
vn -1.000000 0.000000 0.000000
vn -1.000000 0.000000 0.000000
vn -1.000000 0.000000 0.000000
vn -1.000000 0.000000 0.000000
vn 0.000000 -1.000000 0.000000
vn 0.000000 -1.000000 0.000000
vn 0.000000 -1.000000 0.000000
vn 0.000000 -1.000000 0.000000
vn 0.024393 0.999702 0.000000
vn 0.382682 0.923880 0.000000
vn 0.382682 0.923880 0.000000
vn 0.024393 0.999702 0.000000
vn 0.923882 0.382678 0.000000
vn 0.985602 0.169080 0.000000
vn 0.985602 0.169080 0.000000
vn 0.923882 0.382678 0.000000
vn -0.000000 0.000000 1.000000
vn -0.000000 0.000000 1.000000
vn -0.000000 0.000000 1.000000
vn -0.000000 0.000000 1.000000
vn -0.000000 0.000000 1.000000
vn -0.000000 0.000000 1.000000
vn -0.000000 0.000000 -1.000000
vn -0.000000 0.000000 -1.000000
vn -0.000000 0.000000 -1.000000
vn -0.000000 0.000000 -1.000000
vn -0.000000 0.000000 -1.000000
vn -0.000000 0.000000 -1.000000
vn 0.000000 -0.360185 0.932881
vn 0.000000 -0.360185 0.932881
vn 0.000000 -0.360185 0.932881
vn 0.000000 -0.360185 0.932881
vn 0.000000 1.000000 0.000000
vn 0.000000 1.000000 0.000000
vn 0.000000 1.000000 0.000000
vn 0.000000 1.000000 0.000000
vn 0.000000 -0.360187 -0.932880
vn 0.000000 -0.360187 -0.932880
vn 0.000000 -0.360187 -0.932880
vn 0.000000 -0.360187 -0.932880
vn 0.000000 -1.000000 0.000000
vn 0.000000 -1.000000 0.000000
vn 0.000000 -1.000000 0.000000
vn 0.000000 -1.000000 0.000000
vn 0.916439 -0.400175 0.000000
vn 0.916439 -0.400175 0.000000
vn 0.916439 -0.400175 0.000000
vn 0.916439 -0.400175 0.000000
vn -0.915500 -0.402317 0.000000
vn -0.915500 -0.402317 0.000000
vn -0.915500 -0.402317 0.000000
vn -0.915500 -0.402317 0.000000
vn 0.699489 -0.714643 0.000000
vn 0.713158 -0.495684 -0.495685
vn 0.912775 -0.288828 -0.288826
vn 0.926622 -0.375995 0.000000
vn 0.713158 -0.495683 0.495685
vn 0.699489 -0.714643 0.000000
vn 0.926622 -0.375995 0.000000
vn 0.912775 -0.288828 0.288825
vn 0.912775 -0.288828 0.288825
vn 0.926622 -0.375995 0.000000
vn 1.000000 0.000000 0.000000
vn 0.926621 -0.000000 0.375996
vn 0.926622 -0.375995 0.000000
vn 0.912775 -0.288828 -0.288826
vn 0.926621 0.000001 -0.375996
vn 1.000000 0.000000 0.000000
vn 1.000000 0.000000 0.000000
vn 0.926621 0.000001 -0.375996
vn 0.912775 0.288827 -0.288826
vn 0.926624 0.375989 0.000000
vn 0.926621 -0.000000 0.375996
vn 1.000000 0.000000 0.000000
vn 0.926624 0.375989 0.000000
vn 0.912775 0.288828 0.288825
vn 0.912775 0.288828 0.288825
vn 0.926624 0.375989 0.000000
vn 0.699492 0.714641 -0.000000
vn 0.713157 0.495681 0.495690
vn 0.926624 0.375989 0.000000
vn 0.912775 0.288827 -0.288826
vn 0.713158 0.495680 -0.495689
vn 0.699492 0.714641 -0.000000
vn 0.699486 0.000001 -0.714646
vn 0.713158 0.495680 -0.495689
vn 0.912775 0.288827 -0.288826
vn 0.926621 0.000001 -0.375996
vn 0.713158 -0.495684 -0.495685
vn 0.699486 0.000001 -0.714646
vn 0.926621 0.000001 -0.375996
vn 0.912775 -0.288828 -0.288826
vn 0.699486 -0.000000 0.714646
vn 0.713158 -0.495683 0.495685
vn 0.912775 -0.288828 0.288825
vn 0.926621 -0.000000 0.375996
vn 0.713157 0.495681 0.495690
vn 0.699486 -0.000000 0.714646
vn 0.926621 -0.000000 0.375996
vn 0.912775 0.288828 0.288825
vn 0.000000 -0.360185 0.932881
vn 0.000000 -0.360185 0.932881
vn 0.000000 -0.360185 0.932881
vn 0.000000 -0.360185 0.932881
vn 0.000000 1.000000 0.000000
vn 0.000000 1.000000 0.000000
vn 0.000000 1.000000 0.000000
vn 0.000000 1.000000 0.000000
vn 0.000000 -0.360190 -0.932879
vn 0.000000 -0.360190 -0.932879
vn 0.000000 -0.360190 -0.932879
vn 0.000000 -0.360190 -0.932879
vn 0.000000 -1.000000 0.000000
vn 0.000000 -1.000000 0.000000
vn 0.000000 -1.000000 0.000000
vn 0.000000 -1.000000 0.000000
vn 0.916440 -0.400172 0.000000
vn 0.916440 -0.400172 0.000000
vn 0.916440 -0.400172 0.000000
vn 0.916440 -0.400172 0.000000
vn -0.915498 -0.402323 0.000000
vn -0.915498 -0.402323 0.000000
vn -0.915498 -0.402323 0.000000
vn -0.915498 -0.402323 0.000000
vn 0.000000 -0.360186 0.932881
vn 0.000000 -0.360186 0.932881
vn 0.000000 -0.360186 0.932881
vn 0.000000 -0.360186 0.932881
vn 0.000000 1.000000 0.000000
vn 0.000000 1.000000 0.000000
vn 0.000000 1.000000 0.000000
vn 0.000000 1.000000 0.000000
vn 0.000000 -0.360190 -0.932879
vn 0.000000 -0.360190 -0.932879
vn 0.000000 -0.360190 -0.932879
vn 0.000000 -0.360190 -0.932879
vn 0.000000 -1.000000 0.000000
vn 0.000000 -1.000000 0.000000
vn 0.000000 -1.000000 0.000000
vn 0.000000 -1.000000 0.000000
vn 0.916438 -0.400176 0.000000
vn 0.916438 -0.400176 0.000000
vn 0.916438 -0.400176 0.000000
vn 0.916438 -0.400176 0.000000
vn -0.915495 -0.402329 0.000000
vn -0.915495 -0.402329 0.000000
vn -0.915495 -0.402329 0.000000
vn -0.915495 -0.402329 0.000000
s off
g Sofa
usemtl initialShadingGroup
f 1/13/1 2/14/2 4/4/3 3/7/4
f 3/7/5 4/4/6 6/3/7 5/8/8
f 5/8/9 6/3/10 8/10/11 7/9/12
f 7/9/13 8/10/14 2/11/15 1/12/16
f 2/1/17 8/2/18 6/3/19 4/4/20
f 7/5/21 1/6/22 3/7/23 5/8/24
f 11/15/25 16/16/26 19/17/27 12/18/28
f 13/19/29 14/20/30 10/21/31 9/22/32
f 10/23/33 14/24/34 18/25/35 17/26/36
f 13/27/37 9/28/38 11/29/39 12/30/40
f 16/16/41 15/31/42 20/32/43 19/17/44
f 15/33/45 17/26/46 18/25/47 20/34/48
f 15/35/49 16/36/50 11/37/51 9/38/52
f 18/39/53 14/40/54 13/41/55 20/42/56
f 15/35/57 9/38/58 10/43/59 17/44/60
f 20/42/61 13/41/62 12/45/63 19/46/64
f 33/47/65 28/48/66 22/49/67 29/50/68
f 30/51/69 33/47/70 29/50/71 21/52/72
f 21/52/73 29/50/74 34/53/75 25/54/76
f 29/50/77 22/49/78 31/55/79 34/53/80
f 34/53/81 31/55/82 24/56/83 32/57/84
f 25/54/85 34/53/86 32/57/87 23/58/88
f 23/58/89 32/57/90 35/59/91 27/60/92
f 32/57/93 24/56/94 26/61/95 35/59/96
f 36/62/97 26/61/98 24/56/99 31/55/100
f 28/48/101 36/62/102 31/55/103 22/49/104
f 37/63/105 30/51/106 21/52/107 25/54/108
f 27/60/109 37/63/110 25/54/111 23/58/112
f 38/64/113 39/65/114 41/66/115 40/67/116
f 40/67/117 41/66/118 43/68/119 42/69/120
f 42/69/121 43/68/122 45/70/123 44/71/124
f 44/72/125 45/73/126 39/74/127 38/75/128
f 39/74/129 45/73/130 43/68/131 41/66/132
f 44/76/133 38/77/134 40/67/135 42/69/136
f 46/78/137 47/79/138 57/80/139 53/81/140
f 52/82/141 55/83/142 49/84/143 48/85/144
f 48/86/145 49/87/146 51/88/147 50/89/148
f 50/89/149 51/88/150 47/79/151 46/78/152
f 52/82/153 54/90/154 56/91/155 55/83/156
f 54/90/157 53/81/158 57/80/159 56/91/160
f 52/92/161 48/86/162 50/89/163 46/93/164 53/94/165 54/95/166
f 47/96/167 51/88/168 49/87/169 55/97/170 56/98/171 57/99/172
f 70/100/173 65/101/174 59/102/175 66/103/176
f 67/104/177 70/100/178 66/103/179 58/105/180
f 58/105/181 66/103/182 71/106/183 62/107/184
f 66/103/185 59/102/186 68/108/187 71/106/188
f 71/106/189 68/108/190 61/109/191 69/110/192
f 62/107/193 71/106/194 69/110/195 60/111/196
f 60/111/197 69/110/198 72/112/199 64/113/200
f 69/110/201 61/109/202 63/114/203 72/112/204
f 73/115/205 63/114/206 61/109/207 68/108/208
f 65/101/209 73/115/210 68/108/211 59/102/212
f 74/116/213 67/104/214 58/105/215 62/107/216
f 64/113/217 74/116/218 62/107/219 60/111/220
f 75/117/221 76/118/222 78/119/223 77/120/224
f 77/120/225 78/119/226 80/121/227 79/122/228
f 79/122/229 80/121/230 82/123/231 81/124/232
f 81/124/233 82/123/234 76/125/235 75/126/236
f 76/127/237 82/128/238 80/121/239 78/119/240
f 81/129/241 75/130/242 77/120/243 79/122/244
f 83/131/245 87/132/246 103/133/247 102/134/248
f 89/135/249 85/136/250 100/137/251 105/138/252
f 116/139/253 118/140/254 119/141/255 98/142/256
f 91/143/257 83/131/258 102/134/259 101/144/260
f 86/145/261 89/135/262 105/138/263 104/146/264
f 105/138/265 100/137/266 84/147/267 88/148/268
f 84/147/269 100/137/270 101/144/271 90/149/272
f 85/136/273 117/150/274 91/143/275 101/144/276 100/137/277
f 114/151/278 115/152/279 121/153/280 86/145/281 104/146/282
f 84/147/283 90/149/284 92/154/285 93/155/286 94/156/287 88/148/288
f 95/157/289 120/158/290 121/159/291 115/160/292 96/161/293
f 106/162/294 95/163/295 96/164/296 129/165/297 132/166/298
f 95/163/299 106/162/300 107/167/301 98/168/302
f 98/168/303 107/167/304 108/169/305 99/170/306 116/171/307
f 108/169/308 127/172/309 124/173/310 97/174/311 99/170/312
f 101/175/313 102/176/314 109/177/315
f 92/154/316 90/149/317 101/175/318 109/177/319
f 111/178/320 114/179/321 104/180/322 105/181/323
f 88/148/324 94/156/325 111/178/326 105/181/327
f 93/182/328 92/183/329 109/184/330 110/185/331 113/186/332
f 111/187/333 94/188/334 93/189/335 113/186/336 112/190/337
f 107/191/338 113/192/339 110/193/340 108/194/341
f 107/191/342 106/195/343 112/190/344 113/192/345
f 111/178/346 131/196/347 130/197/348 114/179/349
f 87/198/350 118/140/351 116/139/352 99/199/353 97/200/354
f 95/157/355 98/142/356 119/141/357 120/158/358
f 118/140/359 87/198/360 83/201/361 91/202/362 117/203/363
f 119/141/364 118/140/365 117/203/366 85/204/367
f 120/158/368 119/141/369 85/204/370 89/205/371
f 121/159/372 120/158/373 89/205/374 86/206/375
f 123/207/376 125/208/377 109/177/378 102/176/379 103/209/380
f 123/207/381 122/210/382 126/211/383 125/208/384
f 122/212/385 124/173/386 127/172/387 126/213/388
f 122/214/389 87/132/390 97/215/391 124/216/392
f 126/217/393 110/185/394 109/184/395 125/218/396
f 129/165/397 128/219/398 133/220/399 132/166/400
f 128/221/401 130/197/402 131/196/403 133/222/404
f 128/223/405 115/152/406 114/151/407 130/224/408
f 133/225/409 112/190/410 106/195/411 132/226/412
f 128/223/413 129/227/414 96/228/415 115/152/416
f 131/229/417 111/187/418 112/190/419 133/225/420
f 108/230/421 110/185/422 126/217/423 127/231/424
f 122/214/425 123/232/426 103/133/427 87/132/428
f 136/233/429 141/234/430 144/235/431 137/236/432
f 138/237/433 139/238/434 135/239/435 134/240/436
f 135/239/437 139/238/438 143/241/439 142/242/440
f 138/243/441 134/244/442 136/233/443 137/236/444
f 141/234/445 140/245/446 145/246/447 144/235/448
f 140/245/449 142/242/450 143/241/451 145/246/452
f 140/247/453 141/248/454 136/249/455 134/240/456
f 143/250/457 139/238/458 138/237/459 145/251/460
f 140/247/461 134/240/462 135/239/463 142/252/464
f 145/251/465 138/237/466 137/253/467 144/254/468
f 147/255/469 148/256/470 150/257/471 149/258/472
f 151/259/473 156/260/474 154/261/475 146/262/476
f 153/263/477 157/264/478 150/257/479 148/256/480
f 151/265/481 146/266/482 147/255/483 149/258/484
f 153/263/485 152/267/486 155/268/487 157/264/488
f 152/267/489 154/261/490 156/260/491 155/268/492
f 152/269/493 153/270/494 148/271/495 147/272/496
f 155/273/497 156/260/498 151/259/499 149/274/500
f 152/269/501 147/272/502 146/262/503 154/261/504
f 155/273/505 149/274/506 150/275/507 157/276/508
f 170/277/509 165/278/510 159/279/511 166/280/512
f 167/281/513 170/277/514 166/280/515 158/282/516
f 158/282/517 166/280/518 171/283/519 162/284/520
f 166/280/521 159/279/522 168/285/523 171/283/524
f 171/283/525 168/285/526 161/286/527 169/287/528
f 162/284/529 171/283/530 169/287/531 160/288/532
f 160/288/533 169/287/534 172/289/535 164/290/536
f 169/287/537 161/286/538 163/291/539 172/289/540
f 173/292/541 163/291/542 161/286/543 168/285/544
f 165/278/545 173/292/546 168/285/547 159/279/548
f 174/293/549 167/281/550 158/282/551 162/284/552
f 164/290/553 174/293/554 162/284/555 160/288/556
f 187/294/557 182/295/558 176/296/559 183/297/560
f 184/298/561 187/294/562 183/297/563 175/299/564
f 175/299/565 183/297/566 188/300/567 179/301/568
f 183/297/569 176/296/570 185/302/571 188/300/572
f 188/300/573 185/302/574 178/303/575 186/304/576
f 179/301/577 188/300/578 186/304/579 177/305/580
f 177/305/581 186/304/582 189/306/583 181/307/584
f 186/304/585 178/303/586 180/308/587 189/306/588
f 190/309/589 180/308/590 178/303/591 185/302/592
f 182/295/593 190/309/594 185/302/595 176/296/596
f 191/310/597 184/298/598 175/299/599 179/301/600
f 181/307/601 191/310/602 179/301/603 177/305/604
f 192/311/605 193/312/606 203/313/607 199/314/608
f 198/315/609 201/316/610 195/317/611 194/318/612
f 194/318/613 195/317/614 197/319/615 196/320/616
f 196/321/617 197/322/618 193/312/619 192/311/620
f 198/315/621 200/323/622 202/324/623 201/316/624
f 200/323/625 199/314/626 203/313/627 202/324/628
f 198/325/629 194/318/630 196/320/631 192/326/632 199/327/633 200/328/634
f 193/329/635 197/319/636 195/317/637 201/330/638 202/331/639 203/332/640
f 204/333/641 205/334/642 207/335/643 206/336/644
f 206/336/645 207/335/646 209/337/647 208/338/648
f 208/338/649 209/337/650 211/339/651 210/340/652
f 210/340/653 211/339/654 205/341/655 204/342/656
f 205/343/657 211/344/658 209/337/659 207/335/660
f 210/345/661 204/346/662 206/336/663 208/338/664
f 224/347/665 219/348/666 213/349/667 220/350/668
f 221/351/669 224/347/670 220/350/671 212/352/672
f 212/352/673 220/350/674 225/353/675 216/354/676
f 220/350/677 213/349/678 222/355/679 225/353/680
f 225/353/681 222/355/682 215/356/683 223/357/684
f 216/354/685 225/353/686 223/357/687 214/358/688
f 214/358/689 223/357/690 226/359/691 218/360/692
f 223/357/693 215/356/694 217/361/695 226/359/696
f 227/362/697 217/361/698 215/356/699 222/355/700
f 219/348/701 227/362/702 222/355/703 213/349/704
f 228/363/705 221/351/706 212/352/707 216/354/708
f 218/360/709 228/363/710 216/354/711 214/358/712
f 229/364/713 230/365/714 232/366/715 231/367/716
f 231/367/717 232/366/718 234/368/719 233/369/720
f 233/369/721 234/368/722 236/370/723 235/371/724
f 235/371/725 236/370/726 230/372/727 229/373/728
f 230/374/729 236/375/730 234/368/731 232/366/732
f 235/376/733 229/377/734 231/367/735 233/369/736
f 237/378/737 238/379/738 240/380/739 239/381/740
f 239/381/741 240/380/742 242/382/743 241/383/744
f 241/383/745 242/382/746 244/384/747 243/385/748
f 243/385/749 244/384/750 238/386/751 237/387/752
f 238/388/753 244/389/754 242/382/755 240/380/756
f 243/390/757 237/391/758 239/381/759 241/383/760
